<svg viewBox="0 0 72 72" xmlns="http://www.w3.org/2000/svg"><path d="m46 38.9654c4 0 4-6 4-13s-4-14-14-14-14 7-14 14 0 13 4 13" fill="none" stroke="#000" stroke-linecap="round" stroke-linejoin="round" stroke-width="2"/><path d="m41.873 29.9654a2 2 0 1 1 -2-2 2 2 0 0 1 2 2"/><path d="m33.873 29.9654a2 2 0 1 1 -2-2 2 2 0 0 1 2 2"/><g fill="none" stroke="#000" stroke-linejoin="round" stroke-width="2"><path d="m24.9365 30.9654c0 9 4.9365 14 11 14 5.9365 0 11.0635-5 11.0635-14a12.1332 12.1332 0 0 0 -1-5c-3-3-7-8-7-8-4 3-7 6-13 7 0 0-1.0635 1-1.0635 6z"/><path d="m34.084 37.9654a11.5 11.5 0 0 0 3.9365 0" stroke-linecap="round"/><path d="m13.9678 59.9654 2.9375-11.3054-.9375-1.25-4-3-4-6a1.4142 1.4142 0 0 1 2-2l4 4c1 1 2 1 5 2s3.1308 3.2373 3 5c-.666 8.9727-1 12.5557-1 12.5557" stroke-linecap="round"/><path d="m19.9912 42.855s-1.0234-2.89-2.1172-5.89c-.4316-1.1816-1.9062-1.0312-1.9062-.166v3.69" stroke-linecap="round"/><path d="m58.0322 59.9654-2.9375-11.3054.9375-1.25 4-3 4-6a1.4142 1.4142 0 0 0 -2-2l-4 4c-1 1-2 1-5 2s-3.1308 3.2373-3 5c.667 8.9727 1 12.5557 1 12.5557" stroke-linecap="round"/><path d="m52.01 42.855s1.0224-2.89 2.1162-5.89c.4306-1.1816 1.9062-1.0312 1.9062-.166v3.69" stroke-linecap="round"/><path d="m23 39.9654 3-1" stroke-linecap="round"/><path d="m46 38.9654 3.4443 1" stroke-linecap="round"/></g></svg>